<svg id="Layer_1" data-name="Layer 1" xmlns="http://www.w3.org/2000/svg" viewBox="0 0 1002.8 701.17"><polygon points="441.66 185.61 585.95 1.98 641.23 139.71 441.66 185.61" style="fill:none;stroke:#000;stroke-miterlimit:10;stroke-width:2px"/><polygon points="441.66 185.61 491.36 506.29 696.19 169.06 641.23 139.71 441.66 185.61" style="fill:none;stroke:#000;stroke-miterlimit:10;stroke-width:2px"/><polygon points="441.66 185.61 355.15 224.65 491.36 506.29 441.66 185.61" style="fill:none;stroke:#000;stroke-miterlimit:10;stroke-width:2px"/><polygon points="441.66 185.61 205.87 145.95 355.15 224.65 441.66 185.61" style="fill:none;stroke:#000;stroke-miterlimit:10;stroke-width:2px"/><polygon points="491.36 506.29 769.85 328.64 749.91 202.79 696.19 169.06 491.36 506.29" style="fill:none;stroke:#000;stroke-miterlimit:10;stroke-width:2px"/><polygon points="491.36 506.29 788.01 443.27 769.85 328.64 491.36 506.29" style="fill:none;stroke:#000;stroke-miterlimit:10;stroke-width:2px"/><polygon points="788.01 443.27 891.69 189.05 749.91 202.79 788.01 443.27" style="fill:none;stroke:#000;stroke-miterlimit:10;stroke-width:2px"/><polygon points="355.15 224.65 270.69 391.35 428.9 519.56 491.36 506.29 355.15 224.65" style="fill:none;stroke:#000;stroke-miterlimit:10;stroke-width:2px"/><polygon points="355.15 224.65 205.87 145.95 1 337.71 1 565.69 118.43 691.86 355.15 224.65" style="fill:none;stroke:#000;stroke-miterlimit:10;stroke-width:2px"/><polygon points="118.43 691.86 646.85 696.23 270.69 391.35 118.43 691.86" style="fill:none;stroke:#000;stroke-miterlimit:10;stroke-width:2px"/><polygon points="428.9 519.56 646.85 696.23 824.86 699.98 749.91 661.88 701.19 519.56 788.01 443.27 428.9 519.56" style="fill:none;stroke:#000;stroke-miterlimit:10;stroke-width:2px"/><polygon points="788.01 443.27 1001 551.95 824.86 699.98 749.91 661.88 701.19 519.56 788.01 443.27" style="fill:none;stroke:#000;stroke-miterlimit:10;stroke-width:2px"/></svg>