<svg id="_1" data-name="1" xmlns="http://www.w3.org/2000/svg" viewBox="0 0 1005.96 822.38"><polygon points="854.75 472.16 971.64 513.38 907.66 691.17 852.29 611.81 854.75 472.16" style="fill:none;stroke:#444;stroke-miterlimit:10;stroke-width:4px"/><polygon points="925.39 641.91 1002.09 629.03 963.74 695.17 907.66 691.17 925.39 641.91" style="fill:none;stroke:#444;stroke-miterlimit:10;stroke-width:4px"/><polygon points="854.75 472.16 619.75 402.03 680.65 3.38 935.96 170.71 971.64 513.38 854.75 472.16" style="fill:none;stroke:#444;stroke-miterlimit:10;stroke-width:4px"/><polygon points="698.59 425.56 578.12 561.36 524.8 45.01 680.65 3.38 619.75 402.03 698.59 425.56" style="fill:none;stroke:#444;stroke-miterlimit:10;stroke-width:4px"/><polygon points="403.3 345.95 261.4 567.82 419.02 816.05 600.06 816.05 631.08 501.67 578.12 561.36 403.3 345.95" style="fill:none;stroke:#444;stroke-miterlimit:10;stroke-width:4px"/><polygon points="343.95 194.91 58.38 432.17 164.51 816.05 261.4 567.82 403.3 345.95 330.81 256.63 343.95 194.91" style="fill:none;stroke:#444;stroke-miterlimit:10;stroke-width:4px"/><polygon points="58.38 432.17 2.09 482 15.01 608.42 58.38 574.28 58.38 432.17" style="fill:none;stroke:#444;stroke-miterlimit:10;stroke-width:4px"/><polygon points="524.8 45.01 578.12 561.36 330.81 256.63 381.26 19.58 524.8 45.01" style="fill:none;stroke:#444;stroke-miterlimit:10;stroke-width:4px"/><polygon points="631.08 501.67 667.46 460.65 744.63 816.05 606.84 747.39 631.08 501.67" style="fill:none;stroke:#444;stroke-miterlimit:10;stroke-width:4px"/><polygon points="261.4 567.82 164.51 816.05 325.99 816.05 372.78 743.24 261.4 567.82" style="fill:none;stroke:#444;stroke-miterlimit:10;stroke-width:4px"/></svg>